<svg width="28" height="41" viewBox="0 0 28 41" fill="none" xmlns="http://www.w3.org/2000/svg">
<path d="M0 8.31225C0 4.23201 3.35061 0.924316 7.48383 0.924316H20.3251C24.4583 0.924316 27.8089 4.23201 27.8089 8.31225C27.8089 10.8959 26.4655 13.1698 24.4305 14.4903C26.4655 15.8108 27.8089 18.0847 27.8089 20.6683C27.8089 24.7486 24.4583 28.0563 20.3251 28.0563H20.1626C18.2249 28.0563 16.4592 27.3293 15.1302 26.1366V32.9439C15.1302 37.0785 11.6919 40.412 7.52414 40.412C3.40126 40.412 0 37.1144 0 33.0241C0 30.4405 1.34332 28.1668 3.37806 26.8462C1.34332 25.5257 0 23.2519 0 20.6683C0 18.0847 1.34344 15.8108 3.37832 14.4903C1.34344 13.1698 0 10.8959 0 8.31225ZM12.6787 15.7004H7.48383C4.70447 15.7004 2.45139 17.9246 2.45139 20.6683C2.45139 23.4015 4.68709 25.6191 7.45164 25.6362C7.46234 25.6362 7.47304 25.6362 7.48383 25.6362H12.6787V15.7004ZM15.1302 20.6683C15.1302 23.412 17.3832 25.6363 20.1626 25.6363H20.3251C23.1044 25.6363 25.3575 23.412 25.3575 20.6683C25.3575 17.9246 23.1044 15.7004 20.3251 15.7004H20.1626C17.3832 15.7004 15.1302 17.9246 15.1302 20.6683ZM7.48383 28.0563C7.47304 28.0563 7.46234 28.0562 7.45164 28.0562C4.68709 28.0733 2.45139 30.2909 2.45139 33.0241C2.45139 35.7577 4.73457 37.992 7.52414 37.992C10.3587 37.992 12.6787 35.7218 12.6787 32.9439V28.0563H7.48383ZM7.48383 3.34431C4.70447 3.34431 2.45139 5.56854 2.45139 8.31225C2.45139 11.056 4.70447 13.2802 7.48383 13.2802H12.6787V3.34431H7.48383ZM15.1302 13.2802H20.3251C23.1044 13.2802 25.3575 11.056 25.3575 8.31225C25.3575 5.56854 23.1044 3.34431 20.3251 3.34431H15.1302V13.2802Z" fill="white"/>
</svg>
