<svg width="30" height="41" viewBox="0 0 30 41" fill="none" xmlns="http://www.w3.org/2000/svg">
<path d="M0 32.3607L13.8495 6.72526C14.1413 6.18498 14.9305 6.19485 15.2077 6.74321L20.0006 16.2062L0 32.3607Z" fill="#A6A6A6"/>
<path d="M0 32.3536L5.04197 1.66079C5.17379 0.857554 6.26655 0.683443 6.64838 1.40501L16.3641 19.7889L0 32.3536Z" fill="#7A7A7A"/>
<path d="M0.0078125 32.3481L0.189636 32.2072L16.1255 19.3365L11.6309 10.832L0.0078125 32.3481Z" fill="#CCCCCC"/>
<path d="M0 32.3607L24.2425 9.28401C24.7507 8.80027 25.5989 9.08567 25.7025 9.77493L29.0917 32.3607L15.455 40.2074C14.9013 40.5143 14.2259 40.5143 13.6722 40.2074L0 32.3607Z" fill="white"/>
</svg>
