<svg width="40" height="41" viewBox="0 0 40 41" fill="none" xmlns="http://www.w3.org/2000/svg">
<path d="M39.2463 18.9354L21.7862 1.69447C21.3028 1.21774 20.6475 0.949951 19.9643 0.949951C19.281 0.949951 18.6257 1.21774 18.1423 1.69447L14.5119 5.27575L19.112 9.81692C21.5281 9.01128 23.8157 11.2951 22.9862 13.667L27.4202 18.0443C30.4765 17.0042 32.8828 20.7767 30.5872 23.0411C28.222 25.3761 24.3183 22.7882 25.5871 19.7498L21.4487 15.6697V26.41C23.7076 27.5153 23.4362 30.0988 22.2594 31.2579C21.6844 31.8252 20.9048 32.1438 20.0919 32.1438C19.2791 32.1438 18.4994 31.8252 17.9245 31.2579C16.3557 29.7066 16.9361 27.1231 18.929 26.3218V15.4802C17.0718 14.7301 16.7325 12.7706 17.2647 11.5137L12.7298 7.03158L0.754548 18.8552C0.271414 19.3322 0 19.9792 0 20.6538C0 21.3283 0.271414 21.9753 0.754548 22.4523L18.22 39.6932C18.7032 40.1699 19.3584 40.4377 20.0415 40.4377C20.7246 40.4377 21.3797 40.1699 21.8629 39.6932L39.2463 22.5325C39.7294 22.0555 40.0008 21.4085 40.0008 20.734C40.0008 20.0594 39.7294 19.4124 39.2463 18.9354V18.9354Z" fill="white"/>
</svg>
