<svg width="39" height="39" viewBox="0 0 39 39" fill="none" xmlns="http://www.w3.org/2000/svg">
<path d="M12.9609 31.0461C12.9609 31.2024 12.7812 31.3274 12.5547 31.3274C12.2969 31.3508 12.1172 31.2258 12.1172 31.0461C12.1172 30.8899 12.2969 30.7649 12.5234 30.7649C12.7578 30.7415 12.9609 30.8665 12.9609 31.0461ZM10.5313 30.6946C10.4766 30.8508 10.6328 31.0305 10.8672 31.0774C11.0703 31.1555 11.3047 31.0774 11.3516 30.9211C11.3984 30.7649 11.25 30.5852 11.0156 30.5149C10.8125 30.4602 10.5859 30.5383 10.5313 30.6946ZM13.9844 30.5618C13.7578 30.6165 13.6016 30.7649 13.625 30.9446C13.6484 31.1008 13.8516 31.2024 14.0859 31.1477C14.3125 31.093 14.4687 30.9446 14.4453 30.7883C14.4219 30.6399 14.2109 30.5383 13.9844 30.5618ZM19.125 0.624268C8.28906 0.624268 0 8.85083 0 19.6868C0 28.3508 5.45313 35.7649 13.2422 38.3743C14.2422 38.554 14.5938 37.9368 14.5938 37.429C14.5938 36.9446 14.5703 34.2727 14.5703 32.6321C14.5703 32.6321 9.10156 33.804 7.95313 30.304C7.95313 30.304 7.0625 28.0305 5.78125 27.4446C5.78125 27.4446 3.99219 26.218 5.90625 26.2415C5.90625 26.2415 7.85156 26.3977 8.92187 28.2571C10.6328 31.2727 13.5 30.4055 14.6172 29.8899C14.7969 28.6399 15.3047 27.7727 15.8672 27.2571C11.5 26.7727 7.09375 26.1399 7.09375 18.6243C7.09375 16.4758 7.6875 15.3977 8.9375 14.0227C8.73438 13.5149 8.07031 11.4211 9.14062 8.71802C10.7734 8.2102 14.5312 10.8274 14.5312 10.8274C16.0938 10.3899 17.7734 10.1633 19.4375 10.1633C21.1016 10.1633 22.7813 10.3899 24.3438 10.8274C24.3438 10.8274 28.1016 8.20239 29.7344 8.71802C30.8047 11.429 30.1406 13.5149 29.9375 14.0227C31.1875 15.4055 31.9531 16.4836 31.9531 18.6243C31.9531 26.1633 27.3516 26.7649 22.9844 27.2571C23.7031 27.8743 24.3125 29.0461 24.3125 30.8821C24.3125 33.5149 24.2891 36.7727 24.2891 37.4133C24.2891 37.9211 24.6484 38.5383 25.6406 38.3586C33.4531 35.7649 38.75 28.3508 38.75 19.6868C38.75 8.85083 29.9609 0.624268 19.125 0.624268ZM7.59375 27.5696C7.49219 27.6477 7.51563 27.8274 7.64844 27.9758C7.77344 28.1008 7.95312 28.1555 8.05469 28.054C8.15625 27.9758 8.13281 27.7961 8 27.6477C7.875 27.5227 7.69531 27.468 7.59375 27.5696ZM6.75 26.9368C6.69531 27.0383 6.77344 27.1633 6.92969 27.2415C7.05469 27.3196 7.21094 27.2961 7.26562 27.1868C7.32031 27.0852 7.24219 26.9602 7.08594 26.8821C6.92969 26.8352 6.80469 26.8586 6.75 26.9368ZM9.28125 29.718C9.15625 29.8196 9.20312 30.054 9.38281 30.2024C9.5625 30.3821 9.78906 30.4055 9.89062 30.2805C9.99219 30.179 9.94531 29.9446 9.78906 29.7961C9.61719 29.6165 9.38281 29.593 9.28125 29.718ZM8.39063 28.5696C8.26563 28.6477 8.26563 28.8508 8.39063 29.0305C8.51563 29.2102 8.72656 29.2883 8.82812 29.2102C8.95313 29.1086 8.95313 28.9055 8.82812 28.7258C8.71875 28.5461 8.51563 28.468 8.39063 28.5696Z" fill="white"/>
</svg>
