<svg width="20" height="20" viewBox="0 0 20 20" fill="none" xmlns="http://www.w3.org/2000/svg">
<path d="M0 7.45706V7.2305C0 4.50003 1.97344 2.17112 4.66406 1.72269C6.41016 1.4262 8.25781 2.00667 9.53125 3.28206L10 3.75003L10.4336 3.28206C11.7422 2.00667 13.5547 1.4262 15.3359 1.72269C18.0273 2.17112 20 4.50003 20 7.2305V7.45706C20 9.07815 19.3281 10.6289 18.1406 11.7344L11.082 18.3242C10.7891 18.5977 10.4023 18.75 10 18.75C9.59766 18.75 9.21094 18.5977 8.91797 18.3242L1.85898 11.7344C0.673047 10.6289 1.17188e-05 9.07815 1.17188e-05 7.45706H0Z" fill="#FF00B8"/>
</svg>
