<svg width="40" height="41" viewBox="0 0 40 41" fill="none" xmlns="http://www.w3.org/2000/svg">
<path d="M36.375 0.949829H3.625C1.625 0.949829 0 2.55402 0 4.5284V36.859C0 38.8334 1.625 40.4376 3.625 40.4376H36.375C38.375 40.4376 40 38.8334 40 36.859V4.5284C40 2.55402 38.375 0.949829 36.375 0.949829V0.949829ZM15.7232 10.9628C15.7589 13.0253 13.7232 13.3691 13.3482 13.3779C12.0179 13.3779 10.9286 12.3202 10.9286 10.998C10.9375 7.89544 15.6696 7.869 15.7232 10.9628V10.9628ZM29.7143 31.3589C23.8571 31.3589 26.6696 24.8364 27.4821 21.9629C28.7411 17.8731 23.4464 16.7626 22.1339 22.0246L19.8304 31.1297H15.8036L16.5268 28.2651C13.7143 32.8309 8.08036 32.1786 8.08036 27.8861C8.08929 26.6257 8.16071 26.6521 10.1339 18.7105H7.29464L8.16071 15.5726H14.9821C11.9821 27.3572 12.0714 26.7579 12.0446 27.7539C12.0446 29.5961 15.6964 28.9438 17.1696 25.709L18.9375 18.7105H16.0536L16.9196 15.5726H23.0625L22.2679 19.1424C25.8839 12.4877 33.6875 14.9292 31.3571 22.4918C30.0893 26.9959 30.0536 26.9606 30.0268 27.6746C30.0268 29.0408 31.5893 29.6666 32.8661 26.185L34.4643 26.7755C33.5268 30.0103 31.8393 31.3589 29.7143 31.3589Z" fill="white"/>
</svg>
