<svg width="40" height="40" viewBox="0 0 40 40" fill="none" xmlns="http://www.w3.org/2000/svg">
<path d="M0 0V39.4877H40V0H0ZM21.7679 30.7969C21.7679 34.6399 19.4821 36.3939 16.1518 36.3939C13.1429 36.3939 11.4018 34.8603 10.5089 33.0005L13.5714 31.1759C14.1607 32.2072 14.6964 33.0798 15.9911 33.0798C17.2232 33.0798 18.0089 32.6038 18.0089 30.744V18.1309H21.7679V30.7969V30.7969ZM30.6607 36.3939C27.1696 36.3939 24.9107 34.7545 23.8125 32.6038L26.875 30.8586C27.6786 32.1543 28.7321 33.115 30.5804 33.115C32.1339 33.115 33.1339 32.3482 33.1339 31.2817C33.1339 30.0124 32.1161 29.5629 30.3929 28.8137L29.4554 28.4171C26.7411 27.28 24.9464 25.8433 24.9464 22.82C24.9464 20.0347 27.0982 17.9193 30.4464 17.9193C32.8393 17.9193 34.5536 18.739 35.7857 20.8897L32.8571 22.7407C32.2143 21.6037 31.5179 21.1541 30.4375 21.1541C29.3393 21.1541 28.6429 21.8417 28.6429 22.7407C28.6429 23.8513 29.3393 24.3008 30.9554 24.9971L31.8929 25.3938C35.0893 26.7424 36.8839 28.1262 36.8839 31.2288C36.8839 34.5606 34.2232 36.3939 30.6607 36.3939V36.3939Z" fill="white"/>
</svg>
