<svg width="40" height="40" viewBox="0 0 40 40" fill="none" xmlns="http://www.w3.org/2000/svg">
<path d="M24.4199 0.00799952C24.324 0.0220218 24.2281 0.0500664 24.1358 0.0921332C23.3546 0.47424 22.4668 1.61004 22.2963 1.8344C22.2857 1.84842 22.275 1.86245 22.2679 1.87647C21.3908 3.17353 20.9221 4.69144 20.9043 6.27245C20.8937 7.45734 21.128 8.6317 21.6039 9.764C22.7118 12.3897 25.0129 14.5631 27.7507 15.5797C27.8431 15.6113 27.9319 15.6428 28.0916 15.6989C28.1059 15.7059 28.2408 15.748 28.2621 15.7515L28.3615 15.7866C28.5036 15.8321 28.6492 15.8777 28.7912 15.9058C29.5121 16.0495 30.2152 16.1301 30.8757 16.1511C30.9893 16.1511 31.1029 16.1547 31.2166 16.1547C36.1987 16.1547 38.1305 12.6841 38.7732 11.5273C38.8371 11.4151 38.8833 11.324 38.9259 11.2679C38.9259 11.2644 38.9259 11.2644 38.9294 11.2609C39.21 10.8507 39.1034 10.2933 38.688 10.0129C38.2761 9.73596 37.7114 9.84112 37.4274 10.2513H37.4238C36.0957 12.1828 33.823 12.7683 30.6733 11.997C30.4389 11.941 30.1832 11.8533 29.9559 11.7692C29.6577 11.664 29.3594 11.5413 29.0824 11.4081C28.532 11.1382 28.0135 10.8157 27.5448 10.4581C24.775 8.33723 23.6919 3.92372 25.3112 1.37517C25.5278 1.03513 25.4887 0.593429 25.2153 0.295456C25.0093 0.0710994 24.7111 -0.030562 24.4199 0.00799952ZM16.3661 1.79584C16.1601 1.79233 15.9506 1.85894 15.7802 1.99916C14.4059 3.10342 12.9997 4.91229 12.9393 4.98591C12.9322 4.99993 12.9251 5.01045 12.9145 5.02447C10.4287 8.59665 10.2405 13.6797 12.4386 17.974C12.7831 18.6541 13.1737 19.3027 13.5892 19.8986L13.7135 20.0739C14.065 20.5822 14.4592 21.1571 14.9634 21.6058C15.1374 21.8021 15.3256 21.9914 15.5103 22.1737L15.5991 22.2649L15.6736 22.3385C15.8618 22.5173 16.0536 22.6996 16.2525 22.8748H16.256C16.2702 22.8959 16.2915 22.9099 16.3093 22.9274C16.533 23.1237 16.7603 23.3095 17.0621 23.5444L17.1438 23.604C17.3781 23.7898 17.6161 23.9651 17.8611 24.1368C17.8859 24.1544 17.9108 24.1719 17.9357 24.1894C18.0209 24.2455 18.1061 24.2981 18.1913 24.3577L18.2766 24.4138L18.376 24.4769C18.5571 24.5961 18.7346 24.7047 18.9868 24.8485C19.1501 24.9466 19.3241 25.0448 19.4377 25.1009C19.4875 25.1289 19.5407 25.157 19.665 25.2236L19.942 25.3673C19.9562 25.3743 20.0201 25.4023 20.0343 25.4094C20.2154 25.5005 20.4036 25.5881 20.5918 25.6723L20.8795 25.7985C21.0677 25.8791 21.2594 25.9562 21.4938 26.0439L21.6003 26.0824C21.6074 26.0894 21.6962 26.121 21.7033 26.1245C21.8738 26.1841 22.0478 26.2437 22.2218 26.2998L22.6195 26.4295C22.8183 26.4961 23.0492 26.5732 23.3013 26.6153C24.5406 26.8186 25.7444 26.9238 26.8843 26.9238C27.0192 26.9238 27.1542 26.9203 27.2856 26.9203C37.3208 26.7029 39.9308 18.286 39.9557 18.2019C40.08 17.7777 39.8776 17.3255 39.4728 17.1362C39.0679 16.9469 38.585 17.0801 38.3329 17.4447C35.7903 21.1115 30.9822 22.661 26.0853 21.385C25.858 21.3289 25.6379 21.2658 25.3644 21.1781C25.3183 21.1641 25.2792 21.1501 25.2046 21.122C25.0449 21.073 24.8886 21.0204 24.7111 20.9538L24.4589 20.8591C24.3133 20.803 24.1677 20.747 23.9902 20.6698L23.873 20.6172C23.6564 20.5261 23.4469 20.4244 23.2587 20.3333L22.7402 20.0669C22.623 20.0108 22.5201 19.9477 22.3603 19.853L22.2715 19.804L22.1827 19.7514C22.0513 19.6742 21.9199 19.5936 21.7992 19.5095L21.714 19.4569C21.7069 19.4534 21.6358 19.4043 21.6287 19.3973C21.5222 19.3307 21.4192 19.2641 21.3198 19.201C21.0996 19.0467 20.883 18.8855 20.6309 18.6892L20.5315 18.6086C18.1878 16.7611 16.4549 14.2932 15.6417 11.6465C14.8853 9.21713 15.4464 6.03758 17.1438 3.14198C17.3639 2.76688 17.2823 2.29012 16.9449 2.00968C16.778 1.86946 16.5721 1.79584 16.3661 1.79584ZM6.36279 4.48812C6.14617 4.48812 5.92601 4.56524 5.75201 4.71949C4.01555 6.25843 2.71586 8.2531 2.57382 8.48096C-1.14058 13.8199 -0.423263 22.1176 2.12639 27.1902C2.1761 27.2954 2.22937 27.397 2.28263 27.4987L2.31815 27.5548C2.36431 27.6564 2.41758 27.7616 2.43533 27.7826C2.46374 27.8492 2.50635 27.9229 2.52411 27.9439C2.56672 28.0315 2.60933 28.1086 2.68745 28.2419L2.97864 28.7361C3.02125 28.8028 3.06387 28.8729 3.07807 28.8974C3.13489 28.9885 3.19525 29.0832 3.25562 29.1778L3.39766 29.4022C3.44028 29.4688 3.48289 29.5284 3.5113 29.5635C3.65334 29.7808 3.79538 29.9982 3.95163 30.205C3.95873 30.2155 3.96583 30.2225 3.97293 30.2295L4.02975 30.3066C4.15759 30.4889 4.28898 30.6642 4.40616 30.8079L4.92461 31.4565C4.93172 31.4635 4.98853 31.5301 4.99208 31.5371L5.06666 31.6212C5.2229 31.8105 5.3898 31.9998 5.5567 32.1821C5.58156 32.2102 5.60642 32.2347 5.63127 32.2627C5.79107 32.4345 5.95442 32.6063 6.12487 32.7851L6.28822 32.9393C6.42316 33.0795 6.5581 33.2163 6.70014 33.346C6.70014 33.3495 6.76761 33.4126 6.76761 33.4126L6.90965 33.5423C7.0801 33.7035 7.25765 33.8648 7.39259 33.977C7.39969 33.9875 7.52753 34.0962 7.53819 34.1032C7.70508 34.2504 7.87198 34.3906 8.04243 34.5273L8.91244 35.2074C9.05803 35.3126 9.20718 35.4178 9.37763 35.5405C9.43445 35.5825 9.49481 35.6246 9.55518 35.6632C9.58004 35.6842 9.60845 35.7052 9.6262 35.7157L10.2796 36.1469C10.5175 36.3012 10.7554 36.4449 11.0466 36.6167L11.2029 36.7043C11.384 36.8095 11.5686 36.9146 11.7426 37.0058C11.8456 37.0619 11.9486 37.111 12.0374 37.1565C12.1616 37.2231 12.2966 37.2967 12.5025 37.3949C12.5203 37.4054 12.6659 37.4755 12.6837 37.4825C12.8896 37.5842 13.0991 37.6789 13.3619 37.7945C13.3619 37.798 13.4471 37.8366 13.4471 37.8366C13.6886 37.9383 13.923 38.0364 14.2319 38.1591C14.2816 38.1802 14.3313 38.1977 14.342 38.2012C14.5622 38.2853 14.793 38.3695 14.9812 38.4361C14.9989 38.4431 15.0948 38.4816 15.1126 38.4886C15.3647 38.5728 15.6133 38.6534 15.9329 38.7516C15.9861 38.7691 16.0429 38.7866 16.05 38.7866L16.2312 38.8427C16.4513 38.9093 16.6715 38.9794 16.9094 39.025C18.5997 39.33 20.2509 39.4877 21.8134 39.4877H21.8169C34.8386 39.4877 38.9863 29.1428 39.0289 29.0376C39.1887 28.6205 39.0147 28.1507 38.617 27.9334C38.2263 27.7195 37.7292 27.8212 37.4522 28.1753C34.1107 32.5187 27.8076 34.1312 20.5918 32.4941C20.4178 32.4521 20.2403 32.403 20.0663 32.3504L19.7254 32.2487C19.4946 32.1786 19.2637 32.1015 19.04 32.0244C19.0365 32.0244 18.9335 31.9858 18.9335 31.9858C18.7346 31.9192 18.5358 31.8421 18.3618 31.7755L18.1629 31.6984C17.9428 31.6107 17.7226 31.5196 17.5095 31.4249L17.3852 31.3723C17.1935 31.2847 17.0088 31.2006 16.8242 31.1094C16.81 31.1024 16.6644 31.0323 16.6502 31.0288C16.5223 30.9657 16.3945 30.8991 16.2312 30.8114L15.489 30.4188C15.4144 30.3697 15.3363 30.3242 15.2617 30.2856C15.038 30.1489 14.8072 30.0122 14.5799 29.8684C14.5266 29.8369 14.4805 29.8018 14.3917 29.7422C14.2355 29.6441 14.0828 29.5424 13.859 29.3882L13.7703 29.3251C13.6176 29.2199 13.4684 29.1077 13.3441 29.0166C13.266 28.9605 13.1879 28.8974 13.0601 28.8028C12.9464 28.7151 12.8328 28.631 12.7263 28.5468L12.5274 28.3856C12.3605 28.2524 12.2043 28.1122 12.0409 27.9754C12.0196 27.9544 12.0019 27.9404 11.977 27.9229C11.7959 27.7581 11.6112 27.5933 11.3911 27.3865L10.7483 26.7555C10.5921 26.5977 10.4358 26.4365 10.2583 26.2437C10.0949 26.0649 9.93869 25.8861 9.72918 25.6407L9.34567 25.178C9.2995 25.1114 9.24979 25.0448 9.18942 24.9747C9.05803 24.7994 8.92665 24.6276 8.79526 24.4453C5.25841 19.6357 4.33514 9.59573 7.09075 5.91839C7.36774 5.55031 7.31802 5.03148 6.97002 4.71949C6.79957 4.56524 6.5794 4.48812 6.36279 4.48812Z" fill="white"/>
</svg>
