<svg width="40" height="35" viewBox="0 0 40 35" fill="none" xmlns="http://www.w3.org/2000/svg">
<path d="M8.95357 34.9992H0.660714V11.632H8.95357V34.9992ZM4.80268 8.44453C2.15089 8.44453 0 6.52265 0 4.20234C1.89803e-08 3.08781 0.505995 2.01893 1.40667 1.23084C2.30735 0.442745 3.52893 0 4.80268 0C6.07643 0 7.29801 0.442745 8.19869 1.23084C9.09936 2.01893 9.60536 3.08781 9.60536 4.20234C9.60536 6.52265 7.45357 8.44453 4.80268 8.44453ZM39.9911 34.9992H31.7161V23.6242C31.7161 20.9133 31.6536 17.4367 27.4045 17.4367C23.0929 17.4367 22.4321 20.382 22.4321 23.4289V34.9992H14.1482V11.632H22.1018V14.8195H22.2179C23.325 12.9836 26.0295 11.0461 30.0643 11.0461C38.4571 11.0461 40 15.882 40 22.1633V34.9992H39.9911Z" fill="white"/>
</svg>
