<svg width="40" height="30" viewBox="0 0 40 30" fill="none" xmlns="http://www.w3.org/2000/svg">
<path d="M36.25 -0.000732422C38.3203 -0.000732422 40 1.67817 40 3.74927C40 4.92896 39.4453 6.03833 38.5 6.74927L21.5 19.4993C20.6094 20.1633 19.3906 20.1633 18.5 19.4993L1.5 6.74927C0.555703 6.03833 0 4.92896 0 3.74927C0 1.67817 1.67891 -0.000732422 3.75 -0.000732422H36.25ZM17 21.4993C18.7813 22.8352 21.2187 22.8352 23 21.4993L40 8.74927V24.9993C40 27.7571 37.7578 29.9993 35 29.9993H5C2.23828 29.9993 0 27.7571 0 24.9993V8.74927L17 21.4993Z" fill="white"/>
</svg>
