<svg width="36" height="40" viewBox="0 0 36 40" fill="none" xmlns="http://www.w3.org/2000/svg">
<path d="M17.724 39.4877C17.1922 39.4877 16.6524 39.3467 16.1841 39.0803L11.2868 36.2203C10.5566 35.8128 10.9138 35.6718 11.1519 35.5934C12.1282 35.2565 12.3266 35.186 13.3664 34.5983C13.4775 34.5356 13.6204 34.5591 13.7315 34.6296L17.4938 36.8314C17.6287 36.9098 17.8192 36.9098 17.9462 36.8314L32.6064 28.4787C32.7413 28.4003 32.8286 28.2436 32.8286 28.0869V11.3813C32.8286 11.2167 32.7413 11.0678 32.5984 10.9817L17.9462 2.63669C17.8113 2.55834 17.6287 2.55834 17.4938 2.63669L2.84949 10.9895C2.70662 11.0678 2.61931 11.2246 2.61931 11.3891V28.0869C2.61931 28.2436 2.70662 28.4003 2.84949 28.4708L6.86576 30.7588C9.04851 31.8323 10.382 30.5708 10.382 29.2936V12.8074C10.382 12.5723 10.5725 12.3921 10.8106 12.3921H12.6679C12.8981 12.3921 13.0965 12.5723 13.0965 12.8074V29.3014C13.0965 32.1692 11.5091 33.8147 8.75483 33.8147C7.90554 33.8147 7.23881 33.8147 5.38148 32.9058L1.53983 30.7196C0.587359 30.179 0 29.1682 0 28.079V11.3813C0 10.3 0.587359 9.28132 1.53983 8.74066L16.1841 0.387864C17.1128 -0.129288 18.3431 -0.129288 19.2638 0.387864L33.924 8.7485C34.8764 9.28916 35.4638 10.3 35.4638 11.3891V28.0869C35.4638 29.1682 34.8764 30.179 33.924 30.7275L19.2638 39.0803C18.7955 39.3467 18.2637 39.4877 17.724 39.4877ZM29.5585 23.025C29.5585 19.8986 27.4154 19.068 22.915 18.4804C18.3589 17.8849 17.8986 17.5793 17.8986 16.5293C17.8986 15.6595 18.2875 14.4999 21.6609 14.4999C24.6691 14.4999 25.7803 15.1424 26.2407 17.1483C26.2804 17.3364 26.455 17.4774 26.6534 17.4774H28.5584C28.6774 17.4774 28.7885 17.4304 28.8679 17.3442C28.9473 17.258 28.987 17.1405 28.979 17.0229C28.6854 13.5674 26.3597 11.9611 21.6609 11.9611C17.4779 11.9611 14.9856 13.7006 14.9856 16.6233C14.9856 19.7889 17.47 20.6665 21.4783 21.0583C26.2804 21.5206 26.6534 22.218 26.6534 23.1504C26.6534 24.7646 25.3358 25.4541 22.2482 25.4541C18.3669 25.4541 17.5176 24.4903 17.2319 22.5862C17.2001 22.3825 17.0255 22.2336 16.8112 22.2336H14.9142C14.676 22.2336 14.4935 22.4217 14.4935 22.6489C14.4935 25.0858 15.8349 27.9928 22.2562 27.9928C26.8915 27.985 29.5585 26.175 29.5585 23.025V23.025Z" fill="white"/>
</svg>
