<svg width="40" height="41" viewBox="0 0 40 41" fill="none" xmlns="http://www.w3.org/2000/svg">
<path d="M39.2666 15.8015C38.5791 13.078 37.2756 11.0244 34.4989 11.0244H30.9187V15.2022C30.9187 18.4457 28.1331 21.178 24.9546 21.178H15.4192C12.8121 21.178 10.6515 23.3815 10.6515 25.964V34.9366C10.6515 37.4926 12.9014 38.991 15.4192 39.7225C18.4369 40.5951 21.3386 40.7537 24.9546 39.7225C27.3563 39.035 29.7223 37.6512 29.7223 34.9366V31.3493H20.1958V30.1506H34.4989C37.2756 30.1506 38.3024 28.238 39.2666 25.3735C40.2666 22.4208 40.2219 19.5827 39.2666 15.8015V15.8015ZM25.5528 33.7379C26.5438 33.7379 27.3474 34.5399 27.3474 35.5271C27.3474 36.5231 26.5438 37.3251 25.5528 37.3251C24.5707 37.3251 23.7582 36.5143 23.7582 35.5271C23.7671 34.5311 24.5707 33.7379 25.5528 33.7379ZM14.9817 19.997H24.5171C27.1688 19.997 29.2848 17.8375 29.2848 15.211V6.22961C29.2848 3.67357 27.1063 1.76095 24.5171 1.32906C21.3208 0.809042 17.8477 0.835484 14.9817 1.33788C10.9461 2.04299 10.214 3.51492 10.214 6.23842V9.82569H19.7583V11.0244H6.63377C3.85708 11.0244 1.42859 12.6726 0.669687 15.8015C-0.205283 19.3888 -0.240996 21.6275 0.669687 25.3735C1.34824 28.1587 2.96425 30.1506 5.74095 30.1506H9.01762V25.8494C9.01762 22.7381 11.7407 19.997 14.9817 19.997ZM14.3835 7.4283C13.3925 7.4283 12.5889 6.62623 12.5889 5.63907C12.5979 4.6431 13.3925 3.84103 14.3835 3.84103C15.3656 3.84103 16.1781 4.65191 16.1781 5.63907C16.1781 6.62623 15.3746 7.4283 14.3835 7.4283V7.4283Z" fill="white"/>
</svg>
