<svg width="46" height="40" viewBox="0 0 46 40" fill="none" xmlns="http://www.w3.org/2000/svg">
<path d="M37.3373 12.7965C36.8552 12.6378 36.3731 12.488 35.8909 12.347C35.9713 12.0209 36.0427 11.6948 36.1141 11.3686C37.2123 6.11564 36.4891 1.89386 34.0518 0.501282C31.7037 -0.829595 27.8735 0.554164 23.9987 3.88576C23.6148 4.21187 23.2398 4.55561 22.8827 4.89935C22.6417 4.67019 22.3917 4.44103 22.1417 4.22069C18.0794 0.65993 14.0082 -0.838409 11.5708 0.562978C9.23165 1.90267 8.53526 5.87767 9.51735 10.8486C9.61556 11.3422 9.7227 11.827 9.84769 12.3205C9.27629 12.4792 8.71382 12.6554 8.18706 12.8405C3.41946 14.4711 0 17.0447 0 19.7065C0 22.4563 3.64266 25.2151 8.59776 26.8897C8.99952 27.0219 9.40129 27.1541 9.81198 27.2687C9.67806 27.7975 9.56199 28.3175 9.45485 28.8551C8.5174 33.7468 9.24951 37.6248 11.5887 38.9557C13.9993 40.3306 18.0526 38.9204 21.9988 35.5095C22.3113 35.2363 22.6238 34.9543 22.9363 34.6546C23.3291 35.0336 23.7398 35.3949 24.1505 35.7475C27.9717 38.991 31.7483 40.3042 34.0785 38.9733C36.4891 37.5984 37.2748 33.4295 36.257 28.3527C36.1766 27.9649 36.0874 27.5683 35.9892 27.1629C36.2749 27.0836 36.5516 26.9954 36.8284 26.9073C41.9799 25.2239 45.7119 22.5004 45.7119 19.7065C45.7119 17.0359 42.1942 14.4446 37.3373 12.7965V12.7965ZM25.2576 5.31359C28.5788 2.45794 31.6769 1.33859 33.0875 2.14064C34.5964 2.99557 35.1767 6.45057 34.2303 10.9897C34.1678 11.2893 34.1053 11.5802 34.025 11.871C32.0429 11.4303 30.0341 11.113 28.0164 10.9368C26.8557 9.29741 25.5879 7.72856 24.213 6.25666C24.5612 5.93056 24.9005 5.62207 25.2576 5.31359V5.31359ZM14.9278 24.2808C15.3831 25.0476 15.8474 25.8144 16.3384 26.5636C14.9456 26.4137 13.5618 26.1934 12.1958 25.9025C12.5886 24.6333 13.0797 23.3201 13.6511 21.9804C14.0618 22.756 14.4814 23.5228 14.9278 24.2808V24.2808ZM12.2226 13.6778C13.5082 13.3958 14.8742 13.1666 16.2938 12.9904C15.8206 13.7219 15.3563 14.4711 14.9188 15.2291C14.4814 15.9782 14.0528 16.745 13.6511 17.5206C13.0886 16.2074 12.6154 14.9206 12.2226 13.6778ZM14.6689 19.7505C15.2581 18.5342 15.9009 17.3444 16.5795 16.1721C17.258 14.9999 17.9901 13.8629 18.7579 12.7436C20.0971 12.6466 21.4631 12.5938 22.8559 12.5938C24.2487 12.5938 25.6236 12.6466 26.9539 12.7436C27.7128 13.8541 28.436 14.9911 29.1235 16.1545C29.8109 17.3179 30.4537 18.5078 31.0608 19.7153C30.4627 20.9316 29.8198 22.1302 29.1324 23.3113C28.4538 24.4835 27.7307 25.6205 26.9718 26.7486C25.6415 26.8456 24.2576 26.8897 22.8559 26.8897C21.4542 26.8897 20.0971 26.8456 18.7847 26.7663C18.008 25.6469 17.2759 24.5011 16.5884 23.3289C15.9009 22.1567 15.267 20.9668 14.6689 19.7505ZM30.793 24.2632C31.2483 23.4876 31.6769 22.7031 32.0965 21.9099C32.6679 23.1879 33.1679 24.4835 33.6054 25.8144C32.2215 26.1229 30.8198 26.3608 29.4091 26.5195C29.8913 25.7791 30.3466 25.0211 30.793 24.2632ZM32.0786 17.5206C31.659 16.745 31.2305 15.9694 30.7841 15.2114C30.3466 14.4623 29.8913 13.7219 29.4181 12.9904C30.8555 13.1666 32.2304 13.4046 33.5161 13.6955C33.1054 14.9999 32.6233 16.2691 32.0786 17.5206V17.5206ZM22.8738 7.60517C23.8112 8.60994 24.6951 9.66759 25.5165 10.7605C23.7487 10.6812 21.972 10.6812 20.2043 10.7605C21.0792 9.62352 21.981 8.56587 22.8738 7.60517ZM12.5172 2.20234C14.0171 1.33859 17.3473 2.57251 20.856 5.6397C21.0792 5.8336 21.3024 6.04513 21.5346 6.25666C20.1507 7.72856 18.874 9.29741 17.7044 10.9368C15.6867 11.113 13.6868 11.4215 11.7047 11.8534C11.5887 11.4039 11.4905 10.9456 11.3923 10.4873C10.553 6.22141 11.1066 3.00439 12.5172 2.20234V2.20234ZM10.3298 25.4354C9.95483 25.3296 9.58878 25.2151 9.22272 25.0917C7.32104 24.5011 5.16044 23.5669 3.59802 22.3418C2.69628 21.7248 2.08917 20.7729 1.91954 19.7065C1.91954 18.0935 4.74082 16.0311 8.81203 14.6297C9.32093 14.4535 9.83876 14.2948 10.3566 14.145C10.9637 16.0576 11.6958 17.9349 12.544 19.7505C11.6869 21.5926 10.9458 23.4964 10.3298 25.4354V25.4354ZM20.74 34.0729C19.2668 35.4038 17.5616 36.4614 15.7045 37.1841C14.7135 37.6513 13.5707 37.6953 12.5529 37.2987C11.1333 36.4878 10.5441 33.3766 11.3476 29.1901C11.4458 28.6965 11.553 28.2029 11.678 27.7182C13.6778 28.1412 15.6956 28.4321 17.7401 28.5819C18.9186 30.2301 20.2132 31.8077 21.5971 33.2885C21.3114 33.5617 21.0257 33.8261 20.74 34.0729ZM22.9274 31.9311C22.0167 30.9616 21.106 29.8863 20.2221 28.7317C21.0792 28.767 21.9631 28.7846 22.8559 28.7846C23.7755 28.7846 24.6773 28.767 25.5701 28.7229C24.7487 29.8423 23.8648 30.9087 22.9274 31.9311V31.9311ZM34.5964 34.5753C34.516 35.6505 33.9803 36.6553 33.1232 37.334C31.7037 38.1448 28.677 37.0872 25.4094 34.3197C25.0344 34.0024 24.6594 33.6586 24.2755 33.3061C25.6415 31.8166 26.9004 30.2389 28.0432 28.5819C30.0877 28.4144 32.1233 28.106 34.1321 27.6565C34.2214 28.0178 34.3017 28.3792 34.3732 28.7317C34.8106 30.6355 34.8821 32.6186 34.5964 34.5753V34.5753ZM36.2213 25.1005C35.9713 25.1798 35.7213 25.2591 35.4624 25.3296C34.8374 23.4082 34.0696 21.5309 33.1857 19.7065C34.0428 17.9084 34.766 16.0576 35.3731 14.1626C35.8374 14.2948 36.2838 14.4358 36.7123 14.5768C40.8728 15.987 43.7923 18.0847 43.7923 19.6888C43.7923 21.4163 40.6764 23.6462 36.2213 25.1005ZM22.8559 23.7784C25.1147 23.7784 26.945 21.9716 26.945 19.7417C26.945 17.5118 25.1147 15.705 22.8559 15.705C20.5971 15.705 18.7669 17.5118 18.7669 19.7417C18.7669 21.9716 20.5971 23.7784 22.8559 23.7784Z" fill="white"/>
</svg>
