<svg width="54" height="40" viewBox="0 0 54 40" fill="none" xmlns="http://www.w3.org/2000/svg">
<path d="M25.151 29.8532C25.126 29.9026 25.101 29.9421 25.151 29.8532V29.8532ZM45.9101 22.6967C44.2342 22.6961 42.5806 23.0761 41.0772 23.8072C40.5856 22.8283 40.0773 21.9728 39.9939 21.3312C39.894 20.5826 39.7856 20.1384 39.9023 19.25C40.0189 18.3616 40.5439 17.103 40.5356 17.0125C40.5272 16.9221 40.4189 16.4696 39.344 16.4614C38.2691 16.4532 37.3442 16.6671 37.2367 16.9467C37.0468 17.4579 36.8991 17.9833 36.795 18.5179C36.6034 19.4803 34.646 22.9188 33.5378 24.712C33.1712 24.0128 32.8629 23.3959 32.7962 22.9023C32.6962 22.1538 32.5879 21.7096 32.7045 20.8212C32.8212 19.9327 33.3462 18.6742 33.3378 18.5837C33.3295 18.4932 33.2212 18.0408 32.1471 18.0326C31.073 18.0243 30.1472 18.2382 30.0389 18.5179C29.9306 18.7976 29.8139 19.4556 29.5973 20.089C29.3806 20.7224 26.7734 26.4477 26.0909 27.9366C25.7409 28.6934 25.441 29.3021 25.2243 29.7134C25.191 29.7792 25.166 29.8203 25.1493 29.8532C25.1743 29.8121 25.191 29.771 25.191 29.7874C25.0077 30.1411 24.8993 30.3386 24.8993 30.3386V30.3468C24.7577 30.61 24.5994 30.8486 24.5244 30.8486C24.4744 30.8486 24.3661 30.1576 24.5494 29.2116C24.941 27.2209 25.8659 24.128 25.8576 24.021C25.8493 23.9635 26.0326 23.4288 25.2493 23.1409C24.491 22.8694 24.2161 23.3218 24.1494 23.3218C24.0827 23.3218 24.0327 23.4864 24.0327 23.4864C24.0327 23.4864 24.8743 19.9986 22.417 19.9986C20.8838 19.9986 18.7507 21.6602 17.7024 23.1655C17.0441 23.5193 15.6193 24.2843 14.1194 25.0986C13.5444 25.4112 12.9528 25.732 12.3945 26.0364C12.3529 25.9953 12.3195 25.9541 12.2779 25.913C9.29561 22.7707 3.78939 20.5497 4.02271 16.3298C4.10604 14.7915 4.64766 10.7526 14.611 5.84994C22.777 1.83568 29.3056 2.93796 30.4297 5.38929C32.0463 8.88531 26.9392 15.392 18.459 16.3298C15.2268 16.6835 13.5278 15.4496 13.1028 14.989C12.6612 14.5036 12.5945 14.479 12.4279 14.5694C12.1529 14.7175 12.3279 15.1453 12.4279 15.4003C12.6778 16.0501 13.7194 17.2017 15.4934 17.7776C17.0516 18.2793 20.8413 18.559 25.4235 16.8069C30.5714 14.8491 34.5786 9.39532 33.4036 4.82992C32.2071 0.190493 24.4144 -1.33131 17.0458 1.25164C12.6553 2.78989 7.90739 5.20832 4.49184 8.35885C0.434668 12.1099 -0.214446 15.3756 0.0521988 16.7411C1.00129 21.5862 7.76574 24.7449 10.473 27.0811C10.3397 27.1551 10.2147 27.2209 10.098 27.2867C8.74066 27.953 3.58358 30.6182 2.29285 33.4315C0.834635 36.6232 2.5345 38.91 3.65024 39.2226C7.13246 40.1768 10.698 38.4576 12.6137 35.6361C14.5294 32.8146 14.2969 29.1294 13.4136 27.4513C13.4053 27.4266 13.3886 27.4101 13.3803 27.3855C13.7303 27.1798 14.0886 26.9742 14.4469 26.7685C15.1376 26.3654 15.8126 25.9953 16.4042 25.6745C16.0709 26.5629 15.8292 27.6322 15.7043 29.1787C15.5543 30.9884 16.3125 33.3328 17.2958 34.2541C17.7291 34.6572 18.2532 34.6654 18.5782 34.6654C19.7281 34.6654 20.2447 33.7277 20.8188 32.6089C21.5271 31.2434 22.1521 29.6558 22.1521 29.6558C22.1521 29.6558 21.3688 33.9498 23.5103 33.9498C24.2927 33.9498 25.076 32.9544 25.4268 32.4444V32.4526C25.4268 32.4526 25.4435 32.4197 25.4851 32.3539C25.5685 32.2305 25.6101 32.1565 25.6101 32.1565V32.1318C25.9268 31.5971 26.6184 30.3715 27.6591 28.3479C29.009 25.732 30.2997 22.4663 30.2997 22.4663C30.4245 23.1842 30.597 23.8932 30.8164 24.5886C31.0497 25.3701 31.5413 26.2256 31.9329 27.0564C31.6163 27.4842 31.4246 27.7309 31.4246 27.7309C31.4253 27.7373 31.4282 27.7431 31.433 27.7474C31.183 28.0764 30.8997 28.4301 30.608 28.7756C29.5423 30.026 28.2749 31.4573 28.1082 31.8686C27.9083 32.3539 27.9583 32.7159 28.3416 32.9955C28.6249 33.2094 29.1248 33.2423 29.649 33.2012C30.6072 33.1354 31.2822 32.9051 31.6071 32.757C32.2062 32.5449 32.7725 32.2514 33.2895 31.885C34.3311 31.1283 34.9644 30.0424 34.906 28.6111C34.8727 27.8214 34.6144 27.0317 34.2977 26.2914C34.3894 26.1598 34.4894 26.0199 34.5811 25.8801C36.2301 23.5028 37.505 20.8935 37.505 20.8935C37.6297 21.6114 37.8023 22.3204 38.0216 23.0158C38.2216 23.6821 38.6124 24.4142 38.9707 25.1299C37.4217 26.372 36.4634 27.8116 36.1301 28.7575C35.5135 30.5097 35.9968 31.2994 36.905 31.4803C37.3133 31.5626 37.8966 31.3734 38.3299 31.1924C38.9734 30.9808 39.5802 30.6729 40.1289 30.2793C41.1705 29.5226 42.1779 28.4614 42.1113 27.0219C42.0863 26.372 41.903 25.7222 41.6613 25.097C42.9695 24.5541 44.6686 24.2579 46.8351 24.5047C51.4747 25.0394 52.3829 27.902 52.208 29.0948C52.033 30.2876 51.058 30.9539 50.7331 31.1513C50.4081 31.3487 50.3081 31.4227 50.3331 31.5708C50.3748 31.7847 50.5248 31.7765 50.7997 31.7271C51.183 31.6613 53.232 30.7564 53.3237 28.5437C53.457 25.7468 50.7331 22.6703 45.9076 22.695L45.9101 22.6967ZM10.148 34.5996C8.61567 36.253 6.46584 36.8782 5.54175 36.3517C4.55017 35.7825 4.9418 33.3493 6.83248 31.5873C7.98239 30.5179 9.46477 29.5308 10.448 28.9221C10.673 28.7904 10.998 28.593 11.3979 28.3545C11.4646 28.3133 11.4979 28.2969 11.4979 28.2969C11.5729 28.2475 11.6563 28.2064 11.7396 28.157C12.4304 30.6577 11.7646 32.8623 10.148 34.598V34.5996ZM21.3438 27.0811C20.8105 28.3726 19.6864 31.6629 19.0032 31.4902C18.4199 31.3421 18.0616 28.8332 18.8865 26.3654C19.3031 25.1233 20.1864 23.6426 20.7113 23.0668C21.5521 22.1373 22.477 21.8412 22.6937 22.2113C22.9853 22.6967 21.6771 26.2749 21.3438 27.0811ZM30.593 31.4408C30.3681 31.556 30.1597 31.63 30.0598 31.5725C29.9848 31.5313 30.1514 31.375 30.1514 31.375C30.1514 31.375 31.3097 30.1494 31.7679 29.59C32.0346 29.261 32.3429 28.8743 32.6754 28.4466C32.6754 28.4877 32.6837 28.5289 32.6837 28.5782C32.6729 30.0507 31.2405 31.046 30.5905 31.4408H30.593ZM37.7241 29.8368C37.5575 29.7216 37.5825 29.335 38.1408 28.134C38.3574 27.6651 38.8565 26.8754 39.724 26.1187C39.8222 26.4051 39.8755 26.7047 39.8823 27.0071C39.874 28.8579 38.5324 29.5489 37.725 29.8368H37.7241Z" fill="white"/>
</svg>
