<svg width="42" height="41" viewBox="0 0 42 41" fill="none" xmlns="http://www.w3.org/2000/svg">
<path d="M20 0.924316C19.7757 0.925659 19.5522 0.949345 19.3327 0.995014L19.3294 0.9918L2.71485 4.2728L2.71159 4.27602C1.9496 4.41883 1.2619 4.81949 0.766952 5.409C0.272002 5.9985 0.000779719 6.73993 0 7.50561V33.8308C0.000165743 34.5974 0.271505 35.34 0.767168 35.9302C1.26283 36.5205 1.9517 36.9213 2.71485 37.0636L19.3294 40.3446C19.5501 40.3894 19.7747 40.412 20 40.412C20.8841 40.412 21.7319 40.0654 22.357 39.4482C22.9822 38.8311 23.3333 37.9941 23.3333 37.1214V4.21496C23.3333 3.34223 22.9822 2.50524 22.357 1.88812C21.7319 1.27101 20.8841 0.924316 20 0.924316ZM26.6667 5.86028V9.15093V12.4416V15.7322C28.3902 15.7322 29.9116 14.8728 30.8106 13.5631C32.0867 14.2869 33.1351 15.3233 33.8672 16.5838C33.1903 17.0353 32.6358 17.6437 32.2522 18.3557C31.8686 19.0678 31.6676 19.8617 31.6667 20.6682C31.667 21.4752 31.8678 22.2698 32.2515 22.9824C32.6351 23.695 33.1899 24.3039 33.8672 24.7558C33.1352 26.0152 32.0859 27.05 30.8106 27.7733C29.9116 26.4636 28.3902 25.6041 26.6667 25.6041V28.8948V32.1854V35.4761C29.2401 35.4761 31.3345 33.5508 31.6113 31.0832C34.0631 29.942 36.0465 27.9867 37.207 25.5688C38.4312 25.4374 39.5633 24.8647 40.3862 23.9604C41.2091 23.0561 41.6651 21.8838 41.6667 20.6682C41.6658 19.4515 41.2097 18.278 40.3861 17.373C39.5624 16.4679 38.4291 15.895 37.2038 15.7644C36.043 13.3483 34.0618 11.3938 31.6113 10.2532C31.3345 7.78561 29.2401 5.86028 26.6667 5.86028ZM12.3926 12.4384C14.6859 12.4384 15.8677 12.8416 16.416 13.0489V16.3685C16.146 16.1842 14.6861 15.2598 12.5944 15.2598C10.0161 15.2598 9.88607 16.6214 9.88607 16.8666C9.88607 19.532 17.1257 18.8915 17.1257 24.1516C17.1257 27.0013 15.1408 28.898 10.7292 28.898C8.22417 28.898 6.71615 28.3072 6.13282 28.0111V24.4601C6.78448 24.9998 8.24292 26.0765 10.5729 26.0765C11.0296 26.0765 13.3008 26.0131 13.3008 24.4698C13.3008 21.681 6.0612 22.3564 6.0612 17.1654C6.0612 14.9903 7.43591 12.4384 12.3926 12.4384Z" fill="white"/>
</svg>
