<svg width="45" height="41" viewBox="0 0 45 41" fill="none" xmlns="http://www.w3.org/2000/svg">
<path d="M1.65179 12.362L0 14.5567H8.08035L8.69643 3.03654L1.65179 12.362ZM34.5803 2.09341L23.0982 0.885864L35.2143 13.8604L34.5803 2.09341V2.09341ZM9.21428 17.3068L8.21428 15.3676H0.0803571L20.1607 38.4345L9.21428 17.3068ZM9.39285 14.5567H34.75L27.4732 6.75614L22.0803 0.974007L9.39285 14.5567ZM35.9375 15.3588L23.9821 38.4345L44.0536 15.3676H35.9375V15.3588ZM36.2857 4.14713L35.4464 3.03654L35.5268 4.5614L36.0714 14.5567H44.1339L36.2857 4.14713ZM9.33035 6.30661L8.91964 13.8516L21.0446 0.885864L9.5625 2.09341L9.33035 6.30661ZM35.0178 15.3588H9.125L12.9107 22.6658L22.0803 40.3736L35.0178 15.3588V15.3588Z" fill="white"/>
</svg>
