<svg width="40" height="34" viewBox="0 0 40 34" fill="none" xmlns="http://www.w3.org/2000/svg">
<path d="M35.8883 8.85202C35.9137 9.20733 35.9137 9.56272 35.9137 9.91804C35.9137 20.7555 27.665 33.2429 12.5888 33.2429C7.94414 33.2429 3.62945 31.8976 0 29.5627C0.659922 29.6388 1.29437 29.6642 1.97969 29.6642C5.81211 29.6642 9.34008 28.3698 12.1573 26.1617C8.55328 26.0855 5.53297 23.7251 4.49234 20.4764C5 20.5525 5.50758 20.6033 6.04062 20.6033C6.77664 20.6033 7.51273 20.5017 8.19797 20.3241C4.44164 19.5626 1.6243 16.2632 1.6243 12.2784V12.1769C2.71563 12.7861 3.98477 13.1668 5.32984 13.2175C3.12172 11.7454 1.67508 9.23272 1.67508 6.39007C1.67508 4.86726 2.08109 3.47132 2.7918 2.25304C6.82734 7.22765 12.8934 10.4763 19.6953 10.8317C19.5684 10.2226 19.4923 9.58812 19.4923 8.95358C19.4923 4.43577 23.1471 0.755615 27.6902 0.755615C30.0506 0.755615 32.1826 1.74546 33.6801 3.34444C35.5328 2.98913 37.3095 2.30382 38.8831 1.36476C38.2739 3.26835 36.9795 4.86733 35.2791 5.88249C36.9288 5.70491 38.5278 5.24796 39.9998 4.61351C38.8833 6.2378 37.4873 7.68444 35.8883 8.85202V8.85202Z" fill="white"/>
</svg>
